<svg width="79" height="16" viewBox="0 0 79 16" fill="none" xmlns="http://www.w3.org/2000/svg">
<path d="M0.957031 15V0.859375H6.97266C10.1367 0.859375 12.207 2.65625 12.207 5.64453C12.207 7.59766 11.3086 8.98438 9.78516 9.70703L12.6758 15H8.63281L6.13281 10.293H4.66797V15H0.957031ZM4.66797 7.38281H6.11328C7.51953 7.38281 8.32031 6.875 8.32031 5.64453C8.32031 4.39453 7.51953 3.82812 6.11328 3.82812H4.66797V7.38281ZM13.8867 15V0.859375H23.9844V3.86719H17.5977V6.42578H23.457V9.43359H17.5977V11.9922H23.9648V15H13.8867ZM35.2539 6.11328C35.1367 4.78516 34.2383 3.90625 32.7344 3.90625C30.7812 3.90625 29.668 5.41016 29.668 7.92969C29.668 10.5859 30.8008 11.9531 32.7148 11.9531C34.1406 11.9531 35.0586 11.1719 35.2539 9.92188L39.0234 9.96094C38.8281 12.3828 36.6992 15.1953 32.6367 15.1953C28.75 15.1953 25.8398 12.6172 25.8398 7.92969C25.8398 3.22266 28.8281 0.664062 32.6367 0.664062C36.1523 0.664062 38.7109 2.63672 39.0234 6.11328H35.2539ZM52.9883 0.859375V15H49.8828L44.6289 7.36328H44.5312V15H40.8203V0.859375H43.9844L49.1602 8.45703H49.2773V0.859375H52.9883ZM54.9023 15V0.859375H65V3.86719H58.6133V6.42578H64.4727V9.43359H58.6133V11.9922H64.9805V15H54.9023ZM66.543 3.86719V0.859375H78.7305V3.86719H74.4727V15H70.8008V3.86719H66.543Z" fill="#616161"/>
</svg>
