<svg width="88" height="24" viewBox="0 0 88 24" fill="none" xmlns="http://www.w3.org/2000/svg">
<path d="M0.957031 4.85938H5.58594L8.94531 13.082H9.12109L12.4805 4.85938H17.1094V19H13.4766V10.6797H13.3594L10.1367 18.9023H7.91016L4.70703 10.6211H4.58984V19H0.957031V4.85938ZM17.5984 4.85938H21.7586L24.5711 10.6406H24.6883L27.5203 4.85938H31.6805L26.4852 14.4688V19H22.7938V14.4688L17.5984 4.85938ZM47.893 4.85938V19H44.7875L39.5336 11.3633H39.4359V19H35.725V4.85938H38.8891L44.0648 12.457H44.182V4.85938H47.893ZM68.6 19H63.2289V4.85938H68.5609C72.9164 4.85938 75.6312 7.51562 75.6312 11.9297C75.6312 16.3438 72.9164 19 68.6 19ZM66.9398 15.8359H68.4633C70.6508 15.8359 71.8812 14.918 71.8812 11.9297C71.8812 8.94141 70.6508 8.02344 68.3656 8.02344H66.9398V15.8359ZM76.6477 19V4.85938H86.7453V7.86719H80.3586V10.4258H86.218V13.4336H80.3586V15.9922H86.7258V19H76.6477Z" fill="white"/>
<mask id="path-2-inside-1_207_7" fill="white">
<ellipse cx="3.83064" cy="4.43584" rx="3.83064" ry="4.43584" transform="matrix(0.793892 0.608059 -0.59797 0.801518 57.918 3)"/>
</mask>
<ellipse cx="3.83064" cy="4.43584" rx="3.83064" ry="4.43584" transform="matrix(0.793892 0.608059 -0.59797 0.801518 57.918 3)" fill="black"/>
<path d="M58.1721 8.78169C57.9932 9.02147 57.8064 9.09543 57.7413 9.10946C57.7128 9.1156 57.7332 9.10547 57.7975 9.11821C57.868 9.13219 57.9604 9.16847 58.046 9.234L53.2622 15.6462C57.1168 18.5985 62.0787 16.9229 64.5233 13.6462L58.1721 8.78169ZM58.046 9.234C58.1315 9.29954 58.1912 9.3797 58.2237 9.44461C58.2533 9.50379 58.2493 9.52653 58.2473 9.49707C58.2429 9.42973 58.2621 9.22743 58.441 8.98765L52.0899 4.12318C49.6453 7.39989 49.4076 12.6938 53.2622 15.6462L58.046 9.234ZM58.441 8.98765C58.6199 8.74786 58.8068 8.6739 58.8719 8.65987C58.9004 8.65373 58.8799 8.66386 58.8156 8.65112C58.7452 8.63714 58.6528 8.60087 58.5672 8.53533L63.351 2.12318C59.4964 -0.829148 54.5345 0.846463 52.0899 4.12318L58.441 8.98765ZM58.5672 8.53533C58.4816 8.46979 58.422 8.38963 58.3895 8.32472C58.3599 8.26554 58.3639 8.24281 58.3658 8.27226C58.3703 8.3396 58.351 8.5419 58.1721 8.78169L64.5233 13.6462C66.9678 10.3694 67.2056 5.07551 63.351 2.12318L58.5672 8.53533Z" fill="white" mask="url(#path-2-inside-1_207_7)"/>
<mask id="path-4-inside-2_207_7" fill="white">
<ellipse cx="3.83064" cy="4.43584" rx="3.83064" ry="4.43584" transform="matrix(0.793892 0.608059 -0.59797 0.801518 53.3047 9.73438)"/>
</mask>
<ellipse cx="3.83064" cy="4.43584" rx="3.83064" ry="4.43584" transform="matrix(0.793892 0.608059 -0.59797 0.801518 53.3047 9.73438)" fill="black"/>
<path d="M53.5588 15.5161C53.38 15.7558 53.1931 15.8298 53.128 15.8438C53.0995 15.85 53.12 15.8398 53.1842 15.8526C53.2547 15.8666 53.3471 15.9028 53.4327 15.9684L48.6489 22.3805C52.5035 25.3329 57.4654 23.6572 59.91 20.3805L53.5588 15.5161ZM53.4327 15.9684C53.5182 16.0339 53.5779 16.1141 53.6104 16.179C53.64 16.2382 53.636 16.2609 53.634 16.2314C53.6296 16.1641 53.6489 15.9618 53.8278 15.722L47.4766 10.8576C45.032 14.1343 44.7943 19.4282 48.6489 22.3805L53.4327 15.9684ZM53.8278 15.722C54.0066 15.4822 54.1935 15.4083 54.2586 15.3942C54.2871 15.3881 54.2666 15.3982 54.2024 15.3855C54.1319 15.3715 54.0395 15.3352 53.9539 15.2697L58.7377 8.85756C54.8831 5.90523 49.9212 7.58084 47.4766 10.8576L53.8278 15.722ZM53.9539 15.2697C53.8684 15.2042 53.8087 15.124 53.7762 15.0591C53.7466 14.9999 53.7506 14.9772 53.7526 15.0066C53.757 15.074 53.7377 15.2763 53.5588 15.5161L59.91 20.3805C62.3546 17.1038 62.5923 11.8099 58.7377 8.85756L53.9539 15.2697Z" fill="white" mask="url(#path-4-inside-2_207_7)"/>
</svg>
