<svg width="66" height="15" viewBox="0 0 66 15" fill="none" xmlns="http://www.w3.org/2000/svg">
<path d="M0.546875 3.86719V0.859375H12.7344V3.86719H8.47656V15H4.80469V3.86719H0.546875ZM14.2383 15V0.859375H20.2539C23.418 0.859375 25.4883 2.65625 25.4883 5.64453C25.4883 7.59766 24.5898 8.98438 23.0664 9.70703L25.957 15H21.9141L19.4141 10.293H17.9492V15H14.2383ZM17.9492 7.38281H19.3945C20.8008 7.38281 21.6016 6.875 21.6016 5.64453C21.6016 4.39453 20.8008 3.82812 19.3945 3.82812H17.9492V7.38281ZM27.168 15V0.859375H37.2656V3.86719H30.8789V6.42578H36.7383V9.43359H30.8789V11.9922H37.2461V15H27.168ZM51.3867 0.859375V15H48.2812L43.0273 7.36328H42.9297V15H39.2188V0.859375H42.3828L47.5586 8.45703H47.6758V0.859375H51.3867ZM58.6719 15H53.3008V0.859375H58.6328C62.9883 0.859375 65.7031 3.51562 65.7031 7.92969C65.7031 12.3438 62.9883 15 58.6719 15ZM57.0117 11.8359H58.5352C60.7227 11.8359 61.9531 10.918 61.9531 7.92969C61.9531 4.94141 60.7227 4.02344 58.4375 4.02344H57.0117V11.8359Z" fill="white"/>
</svg>
