<svg width="43" height="16" viewBox="0 0 43 16" fill="none" xmlns="http://www.w3.org/2000/svg">
<path d="M0.957031 15V0.859375H4.66797V6.42578H9.88281V0.859375H13.6133V15H9.88281V9.43359H4.66797V15H0.957031ZM29.1016 7.92969C29.1016 12.6367 26.0938 15.1953 22.2656 15.1953C18.3984 15.1953 15.4102 12.6172 15.4102 7.92969C15.4102 3.22266 18.3984 0.664062 22.2656 0.664062C26.0938 0.664062 29.1016 3.22266 29.1016 7.92969ZM25.2734 7.92969C25.2734 5.33203 24.1992 3.90625 22.2656 3.90625C20.3125 3.90625 19.2383 5.33203 19.2383 7.92969C19.2383 10.5273 20.3125 11.9531 22.2656 11.9531C24.1992 11.9531 25.2734 10.5273 25.2734 7.92969ZM29.8438 3.86719V0.859375H42.0312V3.86719H37.7734V15H34.1016V3.86719H29.8438Z" fill="white"/>
</svg>
